<svg xmlns="http://www.w3.org/2000/svg" width="160" height="90" viewBox="0 0 160 90"><rect x="1" y="1" width="158" height="88" rx="14" fill="#fff" stroke="#e6e6e6"/><g transform="translate(12,16)"><path d="M22 0h16c16 0 28 12 28 28S54 56 38 56H22C10 56 0 46 0 34V22C0 10 10 0 22 0Z" fill="#ef233c"/><path d="M20 14h14c9 0 16 7 16 16s-7 16-16 16H20V14Z" fill="#fff" opacity="0.95"/><path d="M25 18v22h11c6 0 11-5 11-11s-5-11-11-11H25Z" fill="#ef233c"/><text x="76" y="37" font-family="Arial, Helvetica, sans-serif" font-size="26" font-weight="700" fill="#101114">prime</text></g></svg>