<svg xmlns="http://www.w3.org/2000/svg" width="58" height="24" viewBox="0 0 58 24" fill="none">
<path d="M50.3333 24H57.6985V2.7424L50.3333 12.1906V24Z" fill="black"/>
<path d="M57.7016 0V0.677021L44.7209 17.2755L39.0877 10.0889V24H31.7225V0.00726863L39.4781 0L44.7126 6.6996L49.9366 0H57.7006H57.7016Z" fill="black"/>
<path d="M31.7226 0.00723267H23.399L18.2092 6.6653H18.2081L14.0474 12.0015L4.69574 23.9989H13.0194L18.2102 17.3408L23.2484 23.8047L23.4 23.9989H31.7236L22.372 12.0026L31.7226 0.00723267Z" fill="black"/>
<path d="M0 0.00723267V23.9989L9.35161 12.0026L0 0.00723267Z" fill="#FF0000"/>
<path d="M13.0181 0.00723267H4.69446L13.2611 10.9237L17.4301 5.59577L13.0181 0.00723267Z" fill="black"/>
</svg>
