<svg xmlns="http://www.w3.org/2000/svg" width="1600" height="900" viewBox="0 0 1600 900" role="img" aria-label="ATR VOLATILITY forex trading article"><defs><linearGradient id="bg" x1="0" y1="0" x2="1" y2="1"><stop stop-color="#03090C"/><stop offset=".55" stop-color="#0C131A"/><stop offset="1" stop-color="#080B0E"/></linearGradient><radialGradient id="glow"><stop stop-color="#F39522" stop-opacity=".30"/><stop offset="1" stop-color="#F39522" stop-opacity="0"/></radialGradient><linearGradient id="darkshade"><stop stop-color="#03080B"/><stop offset=".8" stop-color="#03080B" stop-opacity=".62"/><stop offset="1" stop-color="#03080B" stop-opacity="0"/></linearGradient><linearGradient id="orange" x1="0" y1="0" x2="0" y2="1"><stop stop-color="#FFE4B1"/><stop offset=".45" stop-color="#FAB453"/><stop offset="1" stop-color="#E67B12"/></linearGradient></defs><rect width="1600" height="900" fill="url(#bg)"/><ellipse cx="1250" cy="327" rx="545" ry="505" fill="url(#glow)"/><g stroke="#586570" stroke-opacity=".22"><path d="M817 0V900"/><path d="M881 0V900"/><path d="M945 0V900"/><path d="M1009 0V900"/><path d="M1073 0V900"/><path d="M1137 0V900"/><path d="M1201 0V900"/><path d="M1265 0V900"/><path d="M1329 0V900"/><path d="M1393 0V900"/><path d="M1457 0V900"/><path d="M1521 0V900"/><path d="M1585 0V900"/><path d="M782 48H1600"/><path d="M782 127H1600"/><path d="M782 206H1600"/><path d="M782 285H1600"/><path d="M782 364H1600"/><path d="M782 443H1600"/><path d="M782 522H1600"/><path d="M782 601H1600"/><path d="M782 680H1600"/><path d="M782 759H1600"/><path d="M782 838H1600"/></g><g><line x1="837" y1="428" x2="837" y2="504" stroke="#41D7B4" stroke-width="2"/><rect x="829" y="459" width="17" height="31" rx="1" fill="#41D7B4"/><line x1="860" y1="442" x2="860" y2="489" stroke="#F27656" stroke-width="2"/><rect x="852" y="459" width="17" height="11" rx="1" fill="#F27656"/><line x1="884" y1="415" x2="884" y2="498" stroke="#41D7B4" stroke-width="2"/><rect x="876" y="446" width="17" height="24" rx="1" fill="#41D7B4"/><line x1="907" y1="416" x2="907" y2="528" stroke="#F27656" stroke-width="2"/><rect x="899" y="446" width="17" height="68" rx="1" fill="#F27656"/><line x1="930" y1="481" x2="930" y2="599" stroke="#F27656" stroke-width="2"/><rect x="922" y="514" width="17" height="61" rx="1" fill="#F27656"/><line x1="954" y1="558" x2="954" y2="625" stroke="#F27656" stroke-width="2"/><rect x="946" y="576" width="17" height="18" rx="1" fill="#F27656"/><line x1="977" y1="514" x2="977" y2="617" stroke="#41D7B4" stroke-width="2"/><rect x="969" y="539" width="17" height="55" rx="1" fill="#41D7B4"/><line x1="1000" y1="441" x2="1000" y2="566" stroke="#41D7B4" stroke-width="2"/><rect x="992" y="465" width="17" height="74" rx="1" fill="#41D7B4"/><line x1="1023" y1="442" x2="1023" y2="491" stroke="#F27656" stroke-width="2"/><rect x="1015" y="465" width="17" height="4" rx="1" fill="#F27656"/><line x1="1047" y1="439" x2="1047" y2="485" stroke="#F27656" stroke-width="2"/><rect x="1039" y="468" width="17" height="4" rx="1" fill="#F27656"/><line x1="1070" y1="408" x2="1070" y2="500" stroke="#41D7B4" stroke-width="2"/><rect x="1062" y="439" width="17" height="31" rx="1" fill="#41D7B4"/><line x1="1093" y1="425" x2="1093" y2="505" stroke="#F27656" stroke-width="2"/><rect x="1085" y="439" width="17" height="50" rx="1" fill="#F27656"/><line x1="1117" y1="463" x2="1117" y2="547" stroke="#F27656" stroke-width="2"/><rect x="1109" y="489" width="17" height="28" rx="1" fill="#F27656"/><line x1="1140" y1="489" x2="1140" y2="545" stroke="#41D7B4" stroke-width="2"/><rect x="1132" y="513" width="17" height="4" rx="1" fill="#41D7B4"/><line x1="1163" y1="423" x2="1163" y2="545" stroke="#41D7B4" stroke-width="2"/><rect x="1155" y="453" width="17" height="60" rx="1" fill="#41D7B4"/><line x1="1187" y1="403" x2="1187" y2="470" stroke="#41D7B4" stroke-width="2"/><rect x="1179" y="432" width="17" height="22" rx="1" fill="#41D7B4"/><line x1="1210" y1="411" x2="1210" y2="471" stroke="#F27656" stroke-width="2"/><rect x="1202" y="432" width="17" height="16" rx="1" fill="#F27656"/><line x1="1233" y1="437" x2="1233" y2="491" stroke="#F27656" stroke-width="2"/><rect x="1225" y="448" width="17" height="20" rx="1" fill="#F27656"/><line x1="1256" y1="426" x2="1256" y2="490" stroke="#41D7B4" stroke-width="2"/><rect x="1248" y="439" width="17" height="30" rx="1" fill="#41D7B4"/><line x1="1280" y1="422" x2="1280" y2="545" stroke="#F27656" stroke-width="2"/><rect x="1272" y="439" width="17" height="79" rx="1" fill="#F27656"/><line x1="1303" y1="485" x2="1303" y2="592" stroke="#F27656" stroke-width="2"/><rect x="1295" y="518" width="17" height="44" rx="1" fill="#F27656"/><line x1="1326" y1="550" x2="1326" y2="644" stroke="#F27656" stroke-width="2"/><rect x="1318" y="562" width="17" height="68" rx="1" fill="#F27656"/><line x1="1350" y1="566" x2="1350" y2="654" stroke="#41D7B4" stroke-width="2"/><rect x="1342" y="586" width="17" height="44" rx="1" fill="#41D7B4"/><line x1="1373" y1="514" x2="1373" y2="609" stroke="#41D7B4" stroke-width="2"/><rect x="1365" y="536" width="17" height="50" rx="1" fill="#41D7B4"/><line x1="1396" y1="462" x2="1396" y2="565" stroke="#41D7B4" stroke-width="2"/><rect x="1388" y="475" width="17" height="61" rx="1" fill="#41D7B4"/><line x1="1420" y1="447" x2="1420" y2="515" stroke="#F27656" stroke-width="2"/><rect x="1412" y="475" width="17" height="13" rx="1" fill="#F27656"/><line x1="1443" y1="419" x2="1443" y2="508" stroke="#41D7B4" stroke-width="2"/><rect x="1435" y="447" width="17" height="41" rx="1" fill="#41D7B4"/><line x1="1466" y1="402" x2="1466" y2="458" stroke="#41D7B4" stroke-width="2"/><rect x="1458" y="425" width="17" height="22" rx="1" fill="#41D7B4"/><line x1="1489" y1="414" x2="1489" y2="442" stroke="#F27656" stroke-width="2"/><rect x="1481" y="425" width="17" height="4" rx="1" fill="#F27656"/><line x1="1513" y1="411" x2="1513" y2="509" stroke="#F27656" stroke-width="2"/><rect x="1505" y="429" width="17" height="63" rx="1" fill="#F27656"/><line x1="1536" y1="473" x2="1536" y2="525" stroke="#F27656" stroke-width="2"/><rect x="1528" y="492" width="17" height="4" rx="1" fill="#F27656"/><line x1="1559" y1="433" x2="1559" y2="505" stroke="#41D7B4" stroke-width="2"/><rect x="1551" y="464" width="17" height="29" rx="1" fill="#41D7B4"/></g><rect x="873" y="515" width="584" height="230" rx="10" fill="#0D1520" stroke="#F39522" stroke-width="2"/><g fill="#EFA94A" opacity=".9"><rect x="891" y="581.7930562105103" width="18" height="123.20694378948974" rx="3"/><rect x="922" y="635.0908865391357" width="18" height="69.90911346086432" rx="3"/><rect x="953" y="649.5272742558736" width="18" height="55.472725744126365" rx="3"/><rect x="984" y="671.493438860105" width="18" height="33.506561139894984" rx="3"/><rect x="1015" y="662.8290074236938" width="18" height="42.17099257630616" rx="3"/><rect x="1046" y="576.1555609225009" width="18" height="128.8444390774992" rx="3"/><rect x="1077" y="575.278267553435" width="18" height="129.72173244656506" rx="3"/><rect x="1108" y="615.2047709896915" width="18" height="89.7952290103085" rx="3"/><rect x="1139" y="610.0762796871331" width="18" height="94.92372031286686" rx="3"/><rect x="1170" y="625.5056037567974" width="18" height="79.49439624320257" rx="3"/><rect x="1201" y="585.7773383565109" width="18" height="119.22266164348913" rx="3"/><rect x="1232" y="622.7468411403934" width="18" height="82.25315885960663" rx="3"/><rect x="1263" y="600.1647406217016" width="18" height="104.83525937829837" rx="3"/><rect x="1294" y="601.7681800009577" width="18" height="103.23181999904229" rx="3"/><rect x="1325" y="542.2473744160468" width="18" height="162.75262558395315" rx="3"/><rect x="1356" y="488.6638324811065" width="18" height="216.33616751889352" rx="3"/><rect x="1387" y="497.9185616554896" width="18" height="207.08143834451042" rx="3"/><rect x="1418" y="522.4424937197746" width="18" height="182.55750628022545" rx="3"/></g><text x="1430" y="480" fill="#FCD195" font-size="27" text-anchor="end">TRUE RANGE • 14</text><rect width="990" height="900" fill="url(#darkshade)"/><text x="76" y="95" fill="#EAC085" font-family="Arial,Helvetica,sans-serif" font-size="26" letter-spacing="6" font-weight="700">FOREX EDUCATION</text><path d="M75 119H300" stroke="#F39522" stroke-width="5"/><text x="65" y="398" fill="#FFFFFF" font-family="Arial Black,Arial,Helvetica,sans-serif" font-size="108" font-weight="900">ATR</text><text x="65" y="527" fill="url(#orange)" font-family="Arial Black,Arial,Helvetica,sans-serif" font-size="107" font-weight="900">VOLATILITY</text><rect x="70" y="567" width="609" height="78" rx="18" fill="#060C11" stroke="#F0A745" stroke-width="2"/><text x="96" y="619" fill="#E4E9EC" font-size="25" font-weight="700" font-family="Arial,Helvetica,sans-serif">True Range • Stop Loss • Risk</text><path d="M0 883H1600" stroke="#F39522" stroke-opacity=".4" stroke-width="8"/></svg>