<svg xmlns="http://www.w3.org/2000/svg" width="1600" height="900" viewBox="0 0 1600 900" role="img" aria-label="FOREX BACKTESTING forex education thumbnail"><defs><linearGradient id="bg" x1="0" x2="1" y1="0" y2="1"><stop stop-color="#03070B"/><stop offset=".55" stop-color="#0E171C"/><stop offset="1" stop-color="#120D09"/></linearGradient><radialGradient id="glow"><stop stop-color="#F39522" stop-opacity=".26"/><stop offset="1" stop-color="#F39522" stop-opacity="0"/></radialGradient><linearGradient id="veil" x1="0" x2="1"><stop stop-color="#020609"/><stop offset=".75" stop-color="#020609" stop-opacity=".8"/><stop offset="1" stop-color="#020609" stop-opacity="0"/></linearGradient></defs><rect width="1600" height="900" fill="url(#bg)"/><ellipse cx="1228" cy="371" rx="566" ry="510" fill="url(#glow)"/><g stroke="#818B93" stroke-opacity=".18"><path d="M812 65V866"/><path d="M880 65V866"/><path d="M948 65V866"/><path d="M1016 65V866"/><path d="M1084 65V866"/><path d="M1152 65V866"/><path d="M1220 65V866"/><path d="M1288 65V866"/><path d="M1356 65V866"/><path d="M1424 65V866"/><path d="M1492 65V866"/><path d="M1560 65V866"/><path d="M791 78H1600"/><path d="M791 146H1600"/><path d="M791 214H1600"/><path d="M791 282H1600"/><path d="M791 350H1600"/><path d="M791 418H1600"/><path d="M791 486H1600"/><path d="M791 554H1600"/><path d="M791 622H1600"/><path d="M791 690H1600"/><path d="M791 758H1600"/><path d="M791 826H1600"/></g><line x1="840" y1="442" x2="840" y2="514" stroke="#46D7B2" stroke-width="2"/><rect x="832" y="456" width="16" height="26" rx="2" fill="#46D7B2"/><line x1="864" y1="392" x2="864" y2="464" stroke="#46D7B2" stroke-width="2"/><rect x="856" y="406" width="16" height="26" rx="2" fill="#46D7B2"/><line x1="887" y1="354" x2="887" y2="426" stroke="#EA7D65" stroke-width="2"/><rect x="879" y="387" width="16" height="24" rx="2" fill="#EA7D65"/><line x1="911" y1="336" x2="911" y2="408" stroke="#46D7B2" stroke-width="2"/><rect x="903" y="350" width="16" height="26" rx="2" fill="#46D7B2"/><line x1="934" y1="340" x2="934" y2="412" stroke="#EA7D65" stroke-width="2"/><rect x="926" y="373" width="16" height="24" rx="2" fill="#EA7D65"/><line x1="958" y1="362" x2="958" y2="434" stroke="#46D7B2" stroke-width="2"/><rect x="950" y="376" width="16" height="26" rx="2" fill="#46D7B2"/><line x1="981" y1="396" x2="981" y2="468" stroke="#46D7B2" stroke-width="2"/><rect x="973" y="410" width="16" height="26" rx="2" fill="#46D7B2"/><line x1="1005" y1="430" x2="1005" y2="502" stroke="#EA7D65" stroke-width="2"/><rect x="997" y="463" width="16" height="24" rx="2" fill="#EA7D65"/><line x1="1028" y1="456" x2="1028" y2="528" stroke="#46D7B2" stroke-width="2"/><rect x="1020" y="470" width="16" height="26" rx="2" fill="#46D7B2"/><line x1="1052" y1="469" x2="1052" y2="541" stroke="#46D7B2" stroke-width="2"/><rect x="1044" y="483" width="16" height="26" rx="2" fill="#46D7B2"/><line x1="1075" y1="469" x2="1075" y2="541" stroke="#46D7B2" stroke-width="2"/><rect x="1067" y="483" width="16" height="26" rx="2" fill="#46D7B2"/><line x1="1099" y1="461" x2="1099" y2="533" stroke="#46D7B2" stroke-width="2"/><rect x="1091" y="475" width="16" height="26" rx="2" fill="#46D7B2"/><line x1="1122" y1="452" x2="1122" y2="524" stroke="#EA7D65" stroke-width="2"/><rect x="1114" y="485" width="16" height="24" rx="2" fill="#EA7D65"/><line x1="1146" y1="451" x2="1146" y2="523" stroke="#46D7B2" stroke-width="2"/><rect x="1138" y="465" width="16" height="26" rx="2" fill="#46D7B2"/><line x1="1169" y1="463" x2="1169" y2="535" stroke="#46D7B2" stroke-width="2"/><rect x="1161" y="477" width="16" height="26" rx="2" fill="#46D7B2"/><line x1="1193" y1="487" x2="1193" y2="559" stroke="#EA7D65" stroke-width="2"/><rect x="1185" y="520" width="16" height="24" rx="2" fill="#EA7D65"/><line x1="1216" y1="520" x2="1216" y2="592" stroke="#46D7B2" stroke-width="2"/><rect x="1208" y="534" width="16" height="26" rx="2" fill="#46D7B2"/><line x1="1240" y1="552" x2="1240" y2="624" stroke="#EA7D65" stroke-width="2"/><rect x="1232" y="585" width="16" height="24" rx="2" fill="#EA7D65"/><line x1="1263" y1="574" x2="1263" y2="646" stroke="#46D7B2" stroke-width="2"/><rect x="1255" y="588" width="16" height="26" rx="2" fill="#46D7B2"/><line x1="1287" y1="577" x2="1287" y2="649" stroke="#46D7B2" stroke-width="2"/><rect x="1279" y="591" width="16" height="26" rx="2" fill="#46D7B2"/><line x1="1310" y1="559" x2="1310" y2="631" stroke="#46D7B2" stroke-width="2"/><rect x="1302" y="573" width="16" height="26" rx="2" fill="#46D7B2"/><line x1="1334" y1="521" x2="1334" y2="593" stroke="#46D7B2" stroke-width="2"/><rect x="1326" y="535" width="16" height="26" rx="2" fill="#46D7B2"/><line x1="1357" y1="471" x2="1357" y2="543" stroke="#EA7D65" stroke-width="2"/><rect x="1349" y="504" width="16" height="24" rx="2" fill="#EA7D65"/><line x1="1381" y1="419" x2="1381" y2="491" stroke="#46D7B2" stroke-width="2"/><rect x="1373" y="433" width="16" height="26" rx="2" fill="#46D7B2"/><line x1="1404" y1="378" x2="1404" y2="450" stroke="#46D7B2" stroke-width="2"/><rect x="1396" y="392" width="16" height="26" rx="2" fill="#46D7B2"/><line x1="1428" y1="354" x2="1428" y2="426" stroke="#46D7B2" stroke-width="2"/><rect x="1420" y="368" width="16" height="26" rx="2" fill="#46D7B2"/><line x1="1451" y1="351" x2="1451" y2="423" stroke="#EA7D65" stroke-width="2"/><rect x="1443" y="384" width="16" height="24" rx="2" fill="#EA7D65"/><line x1="1475" y1="366" x2="1475" y2="438" stroke="#EA7D65" stroke-width="2"/><rect x="1467" y="399" width="16" height="24" rx="2" fill="#EA7D65"/><line x1="1498" y1="392" x2="1498" y2="464" stroke="#46D7B2" stroke-width="2"/><rect x="1490" y="406" width="16" height="26" rx="2" fill="#46D7B2"/><line x1="1522" y1="420" x2="1522" y2="492" stroke="#46D7B2" stroke-width="2"/><rect x="1514" y="434" width="16" height="26" rx="2" fill="#46D7B2"/><line x1="1545" y1="440" x2="1545" y2="512" stroke="#46D7B2" stroke-width="2"/><rect x="1537" y="454" width="16" height="26" rx="2" fill="#46D7B2"/><rect x="925" y="615" width="575" height="165" rx="12" fill="#0B1820" stroke="#F39522"/><path d="M950 719L1005 686L1071 710L1146 639L1209 668L1276 631L1349 670L1457 640" fill="none" stroke="#F39522" stroke-width="7"/><path d="M950 721L1005 728L1071 710L1146 741L1209 689L1276 710L1349 671L1457 680" fill="none" stroke="#44DDB5" stroke-width="4"/><text x="979" y="599" font-size="25" font-family="Arial" fill="#F5CA85">IN-SAMPLE   /   OUT-OF-SAMPLE</text><rect width="860" height="900" fill="url(#veil)"/><text x="105" y="108" fill="#F5C88E" font-family="Arial" font-size="23" font-weight="bold" letter-spacing="4">FOREX EDUCATION</text><path d="M107 132H314" stroke="#F39522" stroke-width="5"/><text x="98" y="386" fill="#FFFFFF" font-family="Arial Black,Arial" font-size="120" font-weight="900">FOREX</text><text x="98" y="513" fill="#F39522" font-family="Arial Black,Arial" font-size="82" font-weight="900">BACKTESTING</text><rect x="103" y="566" width="668" height="73" rx="13" stroke="#F39522" fill="#070D10" stroke-width="2"/><text x="126" y="615" fill="#E3E9EC" font-family="Arial" font-size="28">Data • Bias • Walk-Forward</text><path d="M0 884H1600" stroke="#F39522" stroke-opacity=".68" stroke-width="7"/></svg>