<svg xmlns="http://www.w3.org/2000/svg" width="1600" height="900" viewBox="0 0 1600 900" role="img" aria-label="BANK OF ENGLAND"><defs><linearGradient id="bg" x2="1" y2="1"><stop stop-color="#030A0E"/><stop offset=".52" stop-color="#0D151B"/><stop offset="1" stop-color="#070A0C"/></linearGradient><radialGradient id="light"><stop stop-color="#F39522" stop-opacity=".28"/><stop offset="1" stop-color="#F39522" stop-opacity="0"/></radialGradient><linearGradient id="fade"><stop stop-color="#03090C"/><stop offset=".76" stop-color="#03090C" stop-opacity=".58"/><stop offset="1" stop-color="#03090C" stop-opacity="0"/></linearGradient><linearGradient id="orange" x1="0" x2="0" y1="0" y2="1"><stop stop-color="#FFE7B5"/><stop offset=".54" stop-color="#F4B351"/><stop offset="1" stop-color="#E47F12"/></linearGradient></defs><rect width="1600" height="900" fill="url(#bg)"/><ellipse cx="1230" cy="315" rx="570" ry="517" fill="url(#light)"/><g stroke="#6C7B83" stroke-opacity=".20" stroke-width="1"><path d="M808 0V900"/><path d="M876 0V900"/><path d="M944 0V900"/><path d="M1012 0V900"/><path d="M1080 0V900"/><path d="M1148 0V900"/><path d="M1216 0V900"/><path d="M1284 0V900"/><path d="M1352 0V900"/><path d="M1420 0V900"/><path d="M1488 0V900"/><path d="M1556 0V900"/><path d="M1624 0V900"/><path d="M806 60H1600"/><path d="M806 141H1600"/><path d="M806 222H1600"/><path d="M806 303H1600"/><path d="M806 384H1600"/><path d="M806 465H1600"/><path d="M806 546H1600"/><path d="M806 627H1600"/><path d="M806 708H1600"/><path d="M806 789H1600"/><path d="M806 870H1600"/></g><g><line x1="833" y1="514.5" x2="833" y2="622.4" stroke="#FF7861" stroke-width="2"/><rect x="825" y="540.0" width="16" height="56.3" rx="2" fill="#FF7861"/><line x1="856" y1="555.6" x2="856" y2="616.7" stroke="#31D9B3" stroke-width="2"/><rect x="848" y="578.6" width="16" height="17.7" rx="2" fill="#31D9B3"/><line x1="879" y1="562.7" x2="879" y2="608.9" stroke="#FF7861" stroke-width="2"/><rect x="871" y="578.6" width="16" height="19.4" rx="2" fill="#FF7861"/><line x1="902" y1="495.1" x2="902" y2="626.6" stroke="#31D9B3" stroke-width="2"/><rect x="894" y="526.0" width="16" height="71.9" rx="2" fill="#31D9B3"/><line x1="925" y1="505.6" x2="925" y2="597.7" stroke="#FF7861" stroke-width="2"/><rect x="917" y="526.0" width="16" height="53.5" rx="2" fill="#FF7861"/><line x1="948" y1="548.3" x2="948" y2="670.0" stroke="#FF7861" stroke-width="2"/><rect x="940" y="579.6" width="16" height="67.4" rx="2" fill="#FF7861"/><line x1="971" y1="631.7" x2="971" y2="734.9" stroke="#FF7861" stroke-width="2"/><rect x="963" y="647.0" width="16" height="58.6" rx="2" fill="#FF7861"/><line x1="994" y1="640.0" x2="994" y2="735.4" stroke="#31D9B3" stroke-width="2"/><rect x="986" y="670.6" width="16" height="35.0" rx="2" fill="#31D9B3"/><line x1="1017" y1="636.7" x2="1017" y2="695.3" stroke="#31D9B3" stroke-width="2"/><rect x="1009" y="655.1" width="16" height="15.5" rx="2" fill="#31D9B3"/><line x1="1040" y1="575.8" x2="1040" y2="676.3" stroke="#31D9B3" stroke-width="2"/><rect x="1032" y="607.3" width="16" height="47.8" rx="2" fill="#31D9B3"/><line x1="1063" y1="573.1" x2="1063" y2="673.7" stroke="#FF7861" stroke-width="2"/><rect x="1055" y="607.3" width="16" height="41.4" rx="2" fill="#FF7861"/><line x1="1086" y1="629.8" x2="1086" y2="704.1" stroke="#FF7861" stroke-width="2"/><rect x="1078" y="648.7" width="16" height="39.6" rx="2" fill="#FF7861"/><line x1="1109" y1="651.1" x2="1109" y2="708.6" stroke="#31D9B3" stroke-width="2"/><rect x="1101" y="679.0" width="16" height="9.3" rx="2" fill="#31D9B3"/><line x1="1132" y1="581.5" x2="1132" y2="689.3" stroke="#31D9B3" stroke-width="2"/><rect x="1124" y="598.7" width="16" height="80.3" rx="2" fill="#31D9B3"/><line x1="1155" y1="567.3" x2="1155" y2="651.0" stroke="#FF7861" stroke-width="2"/><rect x="1147" y="598.7" width="16" height="36.5" rx="2" fill="#FF7861"/><line x1="1178" y1="578.8" x2="1178" y2="664.7" stroke="#31D9B3" stroke-width="2"/><rect x="1170" y="601.6" width="16" height="33.6" rx="2" fill="#31D9B3"/><line x1="1201" y1="548.9" x2="1201" y2="616.5" stroke="#31D9B3" stroke-width="2"/><rect x="1193" y="571.3" width="16" height="30.3" rx="2" fill="#31D9B3"/><line x1="1224" y1="540.9" x2="1224" y2="621.6" stroke="#FF7861" stroke-width="2"/><rect x="1216" y="571.3" width="16" height="29.9" rx="2" fill="#FF7861"/><line x1="1247" y1="536.7" x2="1247" y2="620.3" stroke="#31D9B3" stroke-width="2"/><rect x="1239" y="559.0" width="16" height="42.2" rx="2" fill="#31D9B3"/><line x1="1270" y1="540.5" x2="1270" y2="610.5" stroke="#FF7861" stroke-width="2"/><rect x="1262" y="559.0" width="16" height="35.4" rx="2" fill="#FF7861"/><line x1="1293" y1="565.8" x2="1293" y2="651.9" stroke="#FF7861" stroke-width="2"/><rect x="1285" y="594.4" width="16" height="42.7" rx="2" fill="#FF7861"/><line x1="1316" y1="601.9" x2="1316" y2="679.4" stroke="#FF7861" stroke-width="2"/><rect x="1308" y="637.1" width="16" height="28.2" rx="2" fill="#FF7861"/><line x1="1339" y1="581.5" x2="1339" y2="682.2" stroke="#31D9B3" stroke-width="2"/><rect x="1331" y="610.4" width="16" height="54.9" rx="2" fill="#31D9B3"/><line x1="1362" y1="590.4" x2="1362" y2="634.5" stroke="#FF7861" stroke-width="2"/><rect x="1354" y="610.4" width="16" height="7.8" rx="2" fill="#FF7861"/><line x1="1385" y1="557.7" x2="1385" y2="646.1" stroke="#31D9B3" stroke-width="2"/><rect x="1377" y="589.0" width="16" height="29.2" rx="2" fill="#31D9B3"/><line x1="1408" y1="505.0" x2="1408" y2="599.3" stroke="#31D9B3" stroke-width="2"/><rect x="1400" y="539.8" width="16" height="49.2" rx="2" fill="#31D9B3"/><line x1="1431" y1="522.4" x2="1431" y2="600.1" stroke="#FF7861" stroke-width="2"/><rect x="1423" y="539.8" width="16" height="36.6" rx="2" fill="#FF7861"/><line x1="1454" y1="553.6" x2="1454" y2="660.8" stroke="#FF7861" stroke-width="2"/><rect x="1446" y="576.4" width="16" height="62.7" rx="2" fill="#FF7861"/><line x1="1477" y1="619.7" x2="1477" y2="718.0" stroke="#FF7861" stroke-width="2"/><rect x="1469" y="639.1" width="16" height="68.0" rx="2" fill="#FF7861"/><line x1="1500" y1="678.6" x2="1500" y2="757.9" stroke="#FF7861" stroke-width="2"/><rect x="1492" y="707.1" width="16" height="19.9" rx="2" fill="#FF7861"/><line x1="1523" y1="712.4" x2="1523" y2="744.0" stroke="#FF7861" stroke-width="2"/><rect x="1515" y="727.0" width="16" height="5.0" rx="2" fill="#FF7861"/></g><rect x="1040" y="159" width="383" height="147" rx="18" fill="#0C161E" stroke="#F5AE53" stroke-width="2"/><text x="1230" y="204" text-anchor="middle" font-size="24" fill="#E5E6E7">MACRO ECONOMICS</text><text x="1230" y="270" text-anchor="middle" font-size="45" font-weight="800" fill="#FFC270">BoE / GBP</text><rect width="987" height="900" fill="url(#fade)"/><text x="75" y="91" font-family="Arial,Helvetica,sans-serif" font-size="25" letter-spacing="5" fill="#E9BE80" font-weight="700">FOREX EDUCATION</text><path d="M75 119H283" stroke="#F39522" stroke-width="5"/><text x="65" y="396" fill="#FFFFFF" font-family="Arial Black,Arial,Helvetica,sans-serif" font-size="109" font-weight="900">BANK OF</text><text x="65" y="527" fill="url(#orange)" font-family="Arial Black,Arial,Helvetica,sans-serif" font-size="109" font-weight="900">ENGLAND</text><rect x="72" y="568" width="440" height="76" rx="17" fill="#060C11" stroke="#F5AE4C" stroke-width="2"/><text x="98" y="618" fill="#E3E9ED" font-family="Arial,Helvetica,sans-serif" font-size="28" font-weight="700">BoE Rates • GBP/USD</text><path d="M0 883H1600" stroke="#F39522" stroke-width="8" stroke-opacity=".4"/></svg>