<svg xmlns="http://www.w3.org/2000/svg" width="1600" height="900" viewBox="0 0 1600 900" role="img" aria-label="BREAKOUT VS FAKEOUT True Break • False Break"><defs><linearGradient id="bg" x2="1" y2="1"><stop stop-color="#03080C"/><stop offset=".5" stop-color="#0D1218"/><stop offset="1" stop-color="#07080B"/></linearGradient><radialGradient id="light"><stop stop-color="#F39522" stop-opacity=".3"/><stop offset="1" stop-color="#F39522" stop-opacity="0"/></radialGradient><linearGradient id="white" x2="0" y2="1"><stop stop-color="#FFFFFF"/><stop offset="1" stop-color="#CDD3DD"/></linearGradient><linearGradient id="orange" x2="0" y2="1"><stop stop-color="#FFE8B4"/><stop offset=".5" stop-color="#FCAF46"/><stop offset="1" stop-color="#E87D15"/></linearGradient><linearGradient id="shade"><stop stop-color="#03080B"/><stop offset=".78" stop-color="#03080B" stop-opacity=".5"/><stop offset="1" stop-color="#03080B" stop-opacity="0"/></linearGradient></defs><rect width="1600" height="900" fill="url(#bg)"/><ellipse cx="1190" cy="302" rx="530" ry="470" fill="url(#light)"/><ellipse cx="155" cy="828" rx="600" ry="260" fill="url(#light)" opacity=".65"/><g stroke="#50616C" stroke-width="1" opacity=".24"><path d="M770 0V900"/><path d="M840 0V900"/><path d="M910 0V900"/><path d="M980 0V900"/><path d="M1050 0V900"/><path d="M1120 0V900"/><path d="M1190 0V900"/><path d="M1260 0V900"/><path d="M1330 0V900"/><path d="M1400 0V900"/><path d="M1470 0V900"/><path d="M1540 0V900"/><path d="M1610 0V900"/><path d="M760 25H1600"/><path d="M760 98H1600"/><path d="M760 171H1600"/><path d="M760 244H1600"/><path d="M760 317H1600"/><path d="M760 390H1600"/><path d="M760 463H1600"/><path d="M760 536H1600"/><path d="M760 609H1600"/><path d="M760 682H1600"/><path d="M760 755H1600"/><path d="M760 828H1600"/><path d="M760 901H1600"/></g><g opacity=".95"><line x1="833.0" y1="427.5" x2="833.0" y2="521.2" stroke="#2BDEB9" stroke-width="2.2"/><rect x="825.0" y="465.8" width="16" height="19.2" rx="2" fill="#2BDEB9"/><line x1="856.7" y1="428.0" x2="856.7" y2="538.5" stroke="#FE7557" stroke-width="2.2"/><rect x="848.7" y="465.8" width="16" height="57.4" rx="2" fill="#FE7557"/><line x1="880.4" y1="399.2" x2="880.4" y2="551.2" stroke="#2BDEB9" stroke-width="2.2"/><rect x="872.4" y="439.1" width="16" height="84.2" rx="2" fill="#2BDEB9"/><line x1="904.1" y1="322.7" x2="904.1" y2="467.9" stroke="#2BDEB9" stroke-width="2.2"/><rect x="896.1" y="335.7" width="16" height="103.4" rx="2" fill="#2BDEB9"/><line x1="927.8" y1="280.5" x2="927.8" y2="370.4" stroke="#2BDEB9" stroke-width="2.2"/><rect x="919.8" y="318.9" width="16" height="16.8" rx="2" fill="#2BDEB9"/><line x1="951.5" y1="276.9" x2="951.5" y2="347.0" stroke="#2BDEB9" stroke-width="2.2"/><rect x="943.5" y="317.0" width="16" height="4.0" rx="2" fill="#2BDEB9"/><line x1="975.2" y1="288.0" x2="975.2" y2="394.3" stroke="#FE7557" stroke-width="2.2"/><rect x="967.2" y="317.0" width="16" height="52.8" rx="2" fill="#FE7557"/><line x1="998.9" y1="330.6" x2="998.9" y2="467.1" stroke="#FE7557" stroke-width="2.2"/><rect x="990.9" y="369.7" width="16" height="59.5" rx="2" fill="#FE7557"/><line x1="1022.6" y1="387.4" x2="1022.6" y2="545.8" stroke="#FE7557" stroke-width="2.2"/><rect x="1014.6" y="429.3" width="16" height="86.7" rx="2" fill="#FE7557"/><line x1="1046.3" y1="445.7" x2="1046.3" y2="534.0" stroke="#2BDEB9" stroke-width="2.2"/><rect x="1038.3" y="480.4" width="16" height="35.5" rx="2" fill="#2BDEB9"/><line x1="1070.0" y1="422.8" x2="1070.0" y2="515.8" stroke="#2BDEB9" stroke-width="2.2"/><rect x="1062.0" y="457.2" width="16" height="23.2" rx="2" fill="#2BDEB9"/><line x1="1093.7" y1="414.4" x2="1093.7" y2="514.0" stroke="#FE7557" stroke-width="2.2"/><rect x="1085.7" y="457.2" width="16" height="21.4" rx="2" fill="#FE7557"/><line x1="1117.4" y1="407.7" x2="1117.4" y2="505.5" stroke="#2BDEB9" stroke-width="2.2"/><rect x="1109.4" y="448.9" width="16" height="29.7" rx="2" fill="#2BDEB9"/><line x1="1141.1" y1="369.9" x2="1141.1" y2="483.8" stroke="#2BDEB9" stroke-width="2.2"/><rect x="1133.1" y="384.4" width="16" height="64.4" rx="2" fill="#2BDEB9"/><line x1="1164.8" y1="338.5" x2="1164.8" y2="410.4" stroke="#2BDEB9" stroke-width="2.2"/><rect x="1156.8" y="369.2" width="16" height="15.3" rx="2" fill="#2BDEB9"/><line x1="1188.5" y1="238.6" x2="1188.5" y2="396.1" stroke="#2BDEB9" stroke-width="2.2"/><rect x="1180.5" y="270.5" width="16" height="98.7" rx="2" fill="#2BDEB9"/><line x1="1212.2" y1="230.4" x2="1212.2" y2="308.1" stroke="#2BDEB9" stroke-width="2.2"/><rect x="1204.2" y="269.7" width="16" height="4.0" rx="2" fill="#2BDEB9"/><line x1="1235.9" y1="186.2" x2="1235.9" y2="299.5" stroke="#2BDEB9" stroke-width="2.2"/><rect x="1227.9" y="217.2" width="16" height="52.5" rx="2" fill="#2BDEB9"/><line x1="1259.6" y1="190.7" x2="1259.6" y2="291.0" stroke="#FE7557" stroke-width="2.2"/><rect x="1251.6" y="217.2" width="16" height="58.7" rx="2" fill="#FE7557"/><line x1="1283.3" y1="220.4" x2="1283.3" y2="305.3" stroke="#2BDEB9" stroke-width="2.2"/><rect x="1275.3" y="263.6" width="16" height="12.3" rx="2" fill="#2BDEB9"/><line x1="1307.0" y1="212.7" x2="1307.0" y2="290.3" stroke="#2BDEB9" stroke-width="2.2"/><rect x="1299.0" y="245.8" width="16" height="17.8" rx="2" fill="#2BDEB9"/><line x1="1330.7" y1="227.6" x2="1330.7" y2="260.5" stroke="#FE7557" stroke-width="2.2"/><rect x="1322.7" y="245.8" width="16" height="4.0" rx="2" fill="#FE7557"/><line x1="1354.4" y1="159.1" x2="1354.4" y2="273.7" stroke="#2BDEB9" stroke-width="2.2"/><rect x="1346.4" y="199.3" width="16" height="47.1" rx="2" fill="#2BDEB9"/><line x1="1378.1" y1="151.9" x2="1378.1" y2="218.1" stroke="#2BDEB9" stroke-width="2.2"/><rect x="1370.1" y="192.1" width="16" height="7.1" rx="2" fill="#2BDEB9"/><line x1="1401.8" y1="134.7" x2="1401.8" y2="230.8" stroke="#2BDEB9" stroke-width="2.2"/><rect x="1393.8" y="164.0" width="16" height="28.1" rx="2" fill="#2BDEB9"/><line x1="1425.5" y1="124.4" x2="1425.5" y2="200.4" stroke="#FE7557" stroke-width="2.2"/><rect x="1417.5" y="164.0" width="16" height="4.0" rx="2" fill="#FE7557"/><line x1="1449.2" y1="135.8" x2="1449.2" y2="195.7" stroke="#FE7557" stroke-width="2.2"/><rect x="1441.2" y="164.0" width="16" height="4.0" rx="2" fill="#FE7557"/><line x1="1472.9" y1="134.5" x2="1472.9" y2="201.4" stroke="#FE7557" stroke-width="2.2"/><rect x="1464.9" y="164.0" width="16" height="4.0" rx="2" fill="#FE7557"/><line x1="1496.6" y1="121.1" x2="1496.6" y2="180.2" stroke="#FE7557" stroke-width="2.2"/><rect x="1488.6" y="164.0" width="16" height="4.0" rx="2" fill="#FE7557"/><line x1="1520.3" y1="130.8" x2="1520.3" y2="287.0" stroke="#FE7557" stroke-width="2.2"/><rect x="1512.3" y="164.0" width="16" height="83.6" rx="2" fill="#FE7557"/><line x1="1544.0" y1="233.1" x2="1544.0" y2="281.7" stroke="#FE7557" stroke-width="2.2"/><rect x="1536.0" y="247.6" width="16" height="5.3" rx="2" fill="#FE7557"/></g><path d="M868 290 H1485" stroke="#F39522" stroke-width="4" stroke-dasharray="16 12"/><path d="M1280 316L1308 255L1337 298L1367 196" stroke="#F3A943" stroke-width="9" stroke-linecap="round" stroke-linejoin="round" fill="none"/><text x="1455" y="177" text-anchor="end" font-size="28" fill="#F6B960">FAKE OR REAL?</text><rect width="989" height="900" fill="url(#shade)"/><path d="M72 122H286" stroke="#F39522" stroke-width="5"/><text x="72" y="93" font-family="Arial,Helvetica,sans-serif" font-size="25" letter-spacing="5" font-weight="700" fill="#EAC18A">FOREX EDUCATION</text><text x="61" y="394" font-family="Arial Black,Arial,Helvetica,sans-serif" font-size="97" font-weight="900" letter-spacing="-1" fill="url(#white)">BREAKOUT VS</text><text x="61" y="527" font-family="Arial Black,Arial,Helvetica,sans-serif" font-size="112" font-weight="900" letter-spacing="-1" fill="url(#orange)">FAKEOUT</text><rect x="70" y="565" rx="18" width="504" height="77" fill="#060B10" stroke="#F39522" stroke-width="1.6"/><text x="97" y="616" font-family="Arial,Helvetica,sans-serif" font-size="30" font-weight="700" fill="#E9EDF0">True Break • False Break</text><path d="M0 884H1600" stroke="#F39522" stroke-opacity=".4" stroke-width="8"/></svg>