<svg xmlns="http://www.w3.org/2000/svg" width="1600" height="900" viewBox="0 0 1600 900" role="img" aria-label="CANDLESTICK PATTERNS Engulfing • Doji • Rejection"><defs><linearGradient id="bg" x2="1" y2="1"><stop stop-color="#03080C"/><stop offset=".5" stop-color="#0D1218"/><stop offset="1" stop-color="#07080B"/></linearGradient><radialGradient id="light"><stop stop-color="#F39522" stop-opacity=".3"/><stop offset="1" stop-color="#F39522" stop-opacity="0"/></radialGradient><linearGradient id="white" x2="0" y2="1"><stop stop-color="#FFFFFF"/><stop offset="1" stop-color="#CDD3DD"/></linearGradient><linearGradient id="orange" x2="0" y2="1"><stop stop-color="#FFE8B4"/><stop offset=".5" stop-color="#FCAF46"/><stop offset="1" stop-color="#E87D15"/></linearGradient><linearGradient id="shade"><stop stop-color="#03080B"/><stop offset=".78" stop-color="#03080B" stop-opacity=".5"/><stop offset="1" stop-color="#03080B" stop-opacity="0"/></linearGradient></defs><rect width="1600" height="900" fill="url(#bg)"/><ellipse cx="1190" cy="302" rx="530" ry="470" fill="url(#light)"/><ellipse cx="155" cy="828" rx="600" ry="260" fill="url(#light)" opacity=".65"/><g stroke="#50616C" stroke-width="1" opacity=".24"><path d="M770 0V900"/><path d="M840 0V900"/><path d="M910 0V900"/><path d="M980 0V900"/><path d="M1050 0V900"/><path d="M1120 0V900"/><path d="M1190 0V900"/><path d="M1260 0V900"/><path d="M1330 0V900"/><path d="M1400 0V900"/><path d="M1470 0V900"/><path d="M1540 0V900"/><path d="M1610 0V900"/><path d="M760 25H1600"/><path d="M760 98H1600"/><path d="M760 171H1600"/><path d="M760 244H1600"/><path d="M760 317H1600"/><path d="M760 390H1600"/><path d="M760 463H1600"/><path d="M760 536H1600"/><path d="M760 609H1600"/><path d="M760 682H1600"/><path d="M760 755H1600"/><path d="M760 828H1600"/><path d="M760 901H1600"/></g><g opacity=".95"><line x1="833.0" y1="495.9" x2="833.0" y2="547.0" stroke="#FE7557" stroke-width="2.2"/><rect x="825.0" y="529.0" width="16" height="4.0" rx="2" fill="#FE7557"/><line x1="856.7" y1="495.2" x2="856.7" y2="586.9" stroke="#FE7557" stroke-width="2.2"/><rect x="848.7" y="531.8" width="16" height="25.5" rx="2" fill="#FE7557"/><line x1="880.4" y1="537.8" x2="880.4" y2="653.7" stroke="#FE7557" stroke-width="2.2"/><rect x="872.4" y="557.2" width="16" height="65.5" rx="2" fill="#FE7557"/><line x1="904.1" y1="601.8" x2="904.1" y2="685.2" stroke="#FE7557" stroke-width="2.2"/><rect x="896.1" y="622.8" width="16" height="41.0" rx="2" fill="#FE7557"/><line x1="927.8" y1="644.9" x2="927.8" y2="738.5" stroke="#FE7557" stroke-width="2.2"/><rect x="919.8" y="663.8" width="16" height="59.2" rx="2" fill="#FE7557"/><line x1="951.5" y1="706.3" x2="951.5" y2="738.3" stroke="#FE7557" stroke-width="2.2"/><rect x="943.5" y="723.0" width="16" height="4.0" rx="2" fill="#FE7557"/><line x1="975.2" y1="635.7" x2="975.2" y2="748.7" stroke="#2BDEB9" stroke-width="2.2"/><rect x="967.2" y="675.2" width="16" height="47.8" rx="2" fill="#2BDEB9"/><line x1="998.9" y1="586.8" x2="998.9" y2="714.5" stroke="#2BDEB9" stroke-width="2.2"/><rect x="990.9" y="607.8" width="16" height="67.4" rx="2" fill="#2BDEB9"/><line x1="1022.6" y1="526.8" x2="1022.6" y2="637.1" stroke="#2BDEB9" stroke-width="2.2"/><rect x="1014.6" y="564.8" width="16" height="43.0" rx="2" fill="#2BDEB9"/><line x1="1046.3" y1="532.7" x2="1046.3" y2="620.8" stroke="#FE7557" stroke-width="2.2"/><rect x="1038.3" y="564.8" width="16" height="29.1" rx="2" fill="#FE7557"/><line x1="1070.0" y1="460.1" x2="1070.0" y2="626.9" stroke="#2BDEB9" stroke-width="2.2"/><rect x="1062.0" y="500.5" width="16" height="93.3" rx="2" fill="#2BDEB9"/><line x1="1093.7" y1="388.1" x2="1093.7" y2="529.4" stroke="#2BDEB9" stroke-width="2.2"/><rect x="1085.7" y="423.5" width="16" height="77.0" rx="2" fill="#2BDEB9"/><line x1="1117.4" y1="408.9" x2="1117.4" y2="452.2" stroke="#FE7557" stroke-width="2.2"/><rect x="1109.4" y="423.5" width="16" height="4.0" rx="2" fill="#FE7557"/><line x1="1141.1" y1="370.7" x2="1141.1" y2="441.6" stroke="#2BDEB9" stroke-width="2.2"/><rect x="1133.1" y="403.6" width="16" height="24.0" rx="2" fill="#2BDEB9"/><line x1="1164.8" y1="334.8" x2="1164.8" y2="439.6" stroke="#2BDEB9" stroke-width="2.2"/><rect x="1156.8" y="369.2" width="16" height="34.3" rx="2" fill="#2BDEB9"/><line x1="1188.5" y1="341.0" x2="1188.5" y2="392.5" stroke="#2BDEB9" stroke-width="2.2"/><rect x="1180.5" y="363.5" width="16" height="5.8" rx="2" fill="#2BDEB9"/><line x1="1212.2" y1="339.9" x2="1212.2" y2="382.1" stroke="#2BDEB9" stroke-width="2.2"/><rect x="1204.2" y="354.8" width="16" height="8.7" rx="2" fill="#2BDEB9"/><line x1="1235.9" y1="284.7" x2="1235.9" y2="385.8" stroke="#2BDEB9" stroke-width="2.2"/><rect x="1227.9" y="299.3" width="16" height="55.4" rx="2" fill="#2BDEB9"/><line x1="1259.6" y1="228.1" x2="1259.6" y2="323.7" stroke="#2BDEB9" stroke-width="2.2"/><rect x="1251.6" y="256.0" width="16" height="43.3" rx="2" fill="#2BDEB9"/><line x1="1283.3" y1="197.8" x2="1283.3" y2="287.2" stroke="#2BDEB9" stroke-width="2.2"/><rect x="1275.3" y="242.9" width="16" height="13.1" rx="2" fill="#2BDEB9"/><line x1="1307.0" y1="173.5" x2="1307.0" y2="272.0" stroke="#2BDEB9" stroke-width="2.2"/><rect x="1299.0" y="205.9" width="16" height="37.0" rx="2" fill="#2BDEB9"/><line x1="1330.7" y1="160.2" x2="1330.7" y2="231.4" stroke="#2BDEB9" stroke-width="2.2"/><rect x="1322.7" y="189.7" width="16" height="16.2" rx="2" fill="#2BDEB9"/><line x1="1354.4" y1="126.8" x2="1354.4" y2="205.2" stroke="#2BDEB9" stroke-width="2.2"/><rect x="1346.4" y="164.0" width="16" height="25.7" rx="2" fill="#2BDEB9"/><line x1="1378.1" y1="132.2" x2="1378.1" y2="202.4" stroke="#FE7557" stroke-width="2.2"/><rect x="1370.1" y="164.0" width="16" height="4.0" rx="2" fill="#FE7557"/><line x1="1401.8" y1="137.4" x2="1401.8" y2="182.1" stroke="#FE7557" stroke-width="2.2"/><rect x="1393.8" y="164.0" width="16" height="4.0" rx="2" fill="#FE7557"/><line x1="1425.5" y1="150.9" x2="1425.5" y2="203.7" stroke="#FE7557" stroke-width="2.2"/><rect x="1417.5" y="164.0" width="16" height="4.0" rx="2" fill="#FE7557"/><line x1="1449.2" y1="123.0" x2="1449.2" y2="259.0" stroke="#FE7557" stroke-width="2.2"/><rect x="1441.2" y="164.0" width="16" height="79.5" rx="2" fill="#FE7557"/><line x1="1472.9" y1="218.7" x2="1472.9" y2="295.1" stroke="#FE7557" stroke-width="2.2"/><rect x="1464.9" y="243.5" width="16" height="17.6" rx="2" fill="#FE7557"/><line x1="1496.6" y1="173.1" x2="1496.6" y2="282.2" stroke="#2BDEB9" stroke-width="2.2"/><rect x="1488.6" y="192.0" width="16" height="69.1" rx="2" fill="#2BDEB9"/><line x1="1520.3" y1="157.3" x2="1520.3" y2="240.0" stroke="#FE7557" stroke-width="2.2"/><rect x="1512.3" y="192.0" width="16" height="8.5" rx="2" fill="#FE7557"/><line x1="1544.0" y1="154.6" x2="1544.0" y2="226.9" stroke="#2BDEB9" stroke-width="2.2"/><rect x="1536.0" y="180.8" width="16" height="19.6" rx="2" fill="#2BDEB9"/></g><rect x="1000" y="143" width="411" height="113" rx="15" fill="#11191E" stroke="#F39522"/><text x="1206" y="187" font-size="26" text-anchor="middle" fill="#E9E9E9">CANDLE CONFIRMATION</text><text x="1206" y="227" font-size="28" text-anchor="middle" fill="#F3B45A">M5 CLOSE ✓</text><rect width="989" height="900" fill="url(#shade)"/><path d="M72 122H286" stroke="#F39522" stroke-width="5"/><text x="72" y="93" font-family="Arial,Helvetica,sans-serif" font-size="25" letter-spacing="5" font-weight="700" fill="#EAC18A">FOREX EDUCATION</text><text x="61" y="394" font-family="Arial Black,Arial,Helvetica,sans-serif" font-size="97" font-weight="900" letter-spacing="-1" fill="url(#white)">CANDLESTICK</text><text x="61" y="527" font-family="Arial Black,Arial,Helvetica,sans-serif" font-size="112" font-weight="900" letter-spacing="-1" fill="url(#orange)">PATTERNS</text><rect x="70" y="565" rx="18" width="588" height="77" fill="#060B10" stroke="#F39522" stroke-width="1.6"/><text x="97" y="616" font-family="Arial,Helvetica,sans-serif" font-size="24" font-weight="700" fill="#E9EDF0">Engulfing • Doji • Rejection</text><path d="M0 884H1600" stroke="#F39522" stroke-opacity=".4" stroke-width="8"/></svg>