<svg xmlns="http://www.w3.org/2000/svg" width="1600" height="900" viewBox="0 0 1600 900" role="img" aria-label="ECB POLICY EUR/USD"><defs><linearGradient id="bg" x2="1" y2="1"><stop stop-color="#030A0E"/><stop offset=".52" stop-color="#0D151B"/><stop offset="1" stop-color="#070A0C"/></linearGradient><radialGradient id="light"><stop stop-color="#F39522" stop-opacity=".28"/><stop offset="1" stop-color="#F39522" stop-opacity="0"/></radialGradient><linearGradient id="fade"><stop stop-color="#03090C"/><stop offset=".76" stop-color="#03090C" stop-opacity=".58"/><stop offset="1" stop-color="#03090C" stop-opacity="0"/></linearGradient><linearGradient id="orange" x1="0" x2="0" y1="0" y2="1"><stop stop-color="#FFE7B5"/><stop offset=".54" stop-color="#F4B351"/><stop offset="1" stop-color="#E47F12"/></linearGradient></defs><rect width="1600" height="900" fill="url(#bg)"/><ellipse cx="1230" cy="315" rx="570" ry="517" fill="url(#light)"/><g stroke="#6C7B83" stroke-opacity=".20" stroke-width="1"><path d="M808 0V900"/><path d="M876 0V900"/><path d="M944 0V900"/><path d="M1012 0V900"/><path d="M1080 0V900"/><path d="M1148 0V900"/><path d="M1216 0V900"/><path d="M1284 0V900"/><path d="M1352 0V900"/><path d="M1420 0V900"/><path d="M1488 0V900"/><path d="M1556 0V900"/><path d="M1624 0V900"/><path d="M806 60H1600"/><path d="M806 141H1600"/><path d="M806 222H1600"/><path d="M806 303H1600"/><path d="M806 384H1600"/><path d="M806 465H1600"/><path d="M806 546H1600"/><path d="M806 627H1600"/><path d="M806 708H1600"/><path d="M806 789H1600"/><path d="M806 870H1600"/></g><g><line x1="833" y1="522.1" x2="833" y2="573.7" stroke="#FF7861" stroke-width="2"/><rect x="825" y="540.0" width="16" height="10.9" rx="2" fill="#FF7861"/><line x1="856" y1="537.5" x2="856" y2="610.1" stroke="#FF7861" stroke-width="2"/><rect x="848" y="550.9" width="16" height="43.9" rx="2" fill="#FF7861"/><line x1="879" y1="486.8" x2="879" y2="622.2" stroke="#31D9B3" stroke-width="2"/><rect x="871" y="508.6" width="16" height="86.2" rx="2" fill="#31D9B3"/><line x1="902" y1="479.6" x2="902" y2="551.2" stroke="#FF7861" stroke-width="2"/><rect x="894" y="508.6" width="16" height="24.7" rx="2" fill="#FF7861"/><line x1="925" y1="519.4" x2="925" y2="606.1" stroke="#FF7861" stroke-width="2"/><rect x="917" y="533.3" width="16" height="53.2" rx="2" fill="#FF7861"/><line x1="948" y1="561.7" x2="948" y2="688.3" stroke="#FF7861" stroke-width="2"/><rect x="940" y="586.5" width="16" height="86.5" rx="2" fill="#FF7861"/><line x1="971" y1="647.3" x2="971" y2="692.2" stroke="#FF7861" stroke-width="2"/><rect x="963" y="672.9" width="16" height="5.0" rx="2" fill="#FF7861"/><line x1="994" y1="649.2" x2="994" y2="735.5" stroke="#FF7861" stroke-width="2"/><rect x="986" y="677.9" width="16" height="32.0" rx="2" fill="#FF7861"/><line x1="1017" y1="696.2" x2="1017" y2="738.9" stroke="#FF7861" stroke-width="2"/><rect x="1009" y="709.8" width="16" height="18.2" rx="2" fill="#FF7861"/><line x1="1040" y1="699.4" x2="1040" y2="747.0" stroke="#FF7861" stroke-width="2"/><rect x="1032" y="728.0" width="16" height="5.0" rx="2" fill="#FF7861"/><line x1="1063" y1="672.8" x2="1063" y2="741.5" stroke="#31D9B3" stroke-width="2"/><rect x="1055" y="693.5" width="16" height="34.5" rx="2" fill="#31D9B3"/><line x1="1086" y1="660.4" x2="1086" y2="758.3" stroke="#FF7861" stroke-width="2"/><rect x="1078" y="693.5" width="16" height="34.5" rx="2" fill="#FF7861"/><line x1="1109" y1="686.9" x2="1109" y2="753.6" stroke="#31D9B3" stroke-width="2"/><rect x="1101" y="707.0" width="16" height="21.0" rx="2" fill="#31D9B3"/><line x1="1132" y1="681.9" x2="1132" y2="728.6" stroke="#31D9B3" stroke-width="2"/><rect x="1124" y="698.7" width="16" height="8.3" rx="2" fill="#31D9B3"/><line x1="1155" y1="607.2" x2="1155" y2="714.9" stroke="#31D9B3" stroke-width="2"/><rect x="1147" y="634.0" width="16" height="64.8" rx="2" fill="#31D9B3"/><line x1="1178" y1="599.5" x2="1178" y2="663.1" stroke="#31D9B3" stroke-width="2"/><rect x="1170" y="614.5" width="16" height="19.4" rx="2" fill="#31D9B3"/><line x1="1201" y1="586.2" x2="1201" y2="713.5" stroke="#FF7861" stroke-width="2"/><rect x="1193" y="614.5" width="16" height="75.1" rx="2" fill="#FF7861"/><line x1="1224" y1="610.5" x2="1224" y2="713.8" stroke="#31D9B3" stroke-width="2"/><rect x="1216" y="637.8" width="16" height="51.8" rx="2" fill="#31D9B3"/><line x1="1247" y1="599.0" x2="1247" y2="655.6" stroke="#31D9B3" stroke-width="2"/><rect x="1239" y="623.0" width="16" height="14.8" rx="2" fill="#31D9B3"/><line x1="1270" y1="594.8" x2="1270" y2="702.9" stroke="#FF7861" stroke-width="2"/><rect x="1262" y="623.0" width="16" height="68.7" rx="2" fill="#FF7861"/><line x1="1293" y1="593.4" x2="1293" y2="703.8" stroke="#31D9B3" stroke-width="2"/><rect x="1285" y="624.4" width="16" height="67.3" rx="2" fill="#31D9B3"/><line x1="1316" y1="541.7" x2="1316" y2="648.9" stroke="#31D9B3" stroke-width="2"/><rect x="1308" y="560.7" width="16" height="63.7" rx="2" fill="#31D9B3"/><line x1="1339" y1="486.2" x2="1339" y2="582.3" stroke="#31D9B3" stroke-width="2"/><rect x="1331" y="512.1" width="16" height="48.6" rx="2" fill="#31D9B3"/><line x1="1362" y1="479.9" x2="1362" y2="581.3" stroke="#FF7861" stroke-width="2"/><rect x="1354" y="512.1" width="16" height="54.0" rx="2" fill="#FF7861"/><line x1="1385" y1="538.3" x2="1385" y2="610.3" stroke="#FF7861" stroke-width="2"/><rect x="1377" y="566.1" width="16" height="20.1" rx="2" fill="#FF7861"/><line x1="1408" y1="494.5" x2="1408" y2="609.7" stroke="#31D9B3" stroke-width="2"/><rect x="1400" y="513.3" width="16" height="72.9" rx="2" fill="#31D9B3"/><line x1="1431" y1="466.8" x2="1431" y2="525.7" stroke="#31D9B3" stroke-width="2"/><rect x="1423" y="482.4" width="16" height="30.9" rx="2" fill="#31D9B3"/><line x1="1454" y1="464.2" x2="1454" y2="539.5" stroke="#FF7861" stroke-width="2"/><rect x="1446" y="482.4" width="16" height="34.9" rx="2" fill="#FF7861"/><line x1="1477" y1="491.4" x2="1477" y2="604.8" stroke="#FF7861" stroke-width="2"/><rect x="1469" y="517.3" width="16" height="70.0" rx="2" fill="#FF7861"/><line x1="1500" y1="566.7" x2="1500" y2="676.4" stroke="#FF7861" stroke-width="2"/><rect x="1492" y="587.3" width="16" height="60.4" rx="2" fill="#FF7861"/><line x1="1523" y1="629.3" x2="1523" y2="682.4" stroke="#FF7861" stroke-width="2"/><rect x="1515" y="647.7" width="16" height="17.3" rx="2" fill="#FF7861"/></g><rect x="1040" y="159" width="383" height="147" rx="18" fill="#0C161E" stroke="#F5AE53" stroke-width="2"/><text x="1230" y="204" text-anchor="middle" font-size="24" fill="#E5E6E7">MACRO ECONOMICS</text><text x="1230" y="270" text-anchor="middle" font-size="45" font-weight="800" fill="#FFC270">ECB / EUR</text><rect width="987" height="900" fill="url(#fade)"/><text x="75" y="91" font-family="Arial,Helvetica,sans-serif" font-size="25" letter-spacing="5" fill="#E9BE80" font-weight="700">FOREX EDUCATION</text><path d="M75 119H283" stroke="#F39522" stroke-width="5"/><text x="65" y="396" fill="#FFFFFF" font-family="Arial Black,Arial,Helvetica,sans-serif" font-size="109" font-weight="900">ECB POLICY</text><text x="65" y="527" fill="url(#orange)" font-family="Arial Black,Arial,Helvetica,sans-serif" font-size="109" font-weight="900">EUR/USD</text><rect x="72" y="568" width="520" height="76" rx="17" fill="#060C11" stroke="#F5AE4C" stroke-width="2"/><text x="98" y="618" fill="#E3E9ED" font-family="Arial,Helvetica,sans-serif" font-size="28" font-weight="700">Euro Rates • Guidance • FX</text><path d="M0 883H1600" stroke="#F39522" stroke-width="8" stroke-opacity=".4"/></svg>