<svg xmlns="http://www.w3.org/2000/svg" width="1600" height="900" viewBox="0 0 1600 900" role="img" aria-label="ENGULFING CANDLE"><defs><linearGradient id="bg" x2="1" y2="1"><stop stop-color="#030A0E"/><stop offset=".52" stop-color="#0D151B"/><stop offset="1" stop-color="#070A0C"/></linearGradient><radialGradient id="light"><stop stop-color="#F39522" stop-opacity=".28"/><stop offset="1" stop-color="#F39522" stop-opacity="0"/></radialGradient><linearGradient id="fade"><stop stop-color="#03090C"/><stop offset=".76" stop-color="#03090C" stop-opacity=".58"/><stop offset="1" stop-color="#03090C" stop-opacity="0"/></linearGradient><linearGradient id="orange" x1="0" x2="0" y1="0" y2="1"><stop stop-color="#FFE7B5"/><stop offset=".54" stop-color="#F4B351"/><stop offset="1" stop-color="#E47F12"/></linearGradient></defs><rect width="1600" height="900" fill="url(#bg)"/><ellipse cx="1230" cy="315" rx="570" ry="517" fill="url(#light)"/><g stroke="#6C7B83" stroke-opacity=".20" stroke-width="1"><path d="M808 0V900"/><path d="M876 0V900"/><path d="M944 0V900"/><path d="M1012 0V900"/><path d="M1080 0V900"/><path d="M1148 0V900"/><path d="M1216 0V900"/><path d="M1284 0V900"/><path d="M1352 0V900"/><path d="M1420 0V900"/><path d="M1488 0V900"/><path d="M1556 0V900"/><path d="M1624 0V900"/><path d="M806 60H1600"/><path d="M806 141H1600"/><path d="M806 222H1600"/><path d="M806 303H1600"/><path d="M806 384H1600"/><path d="M806 465H1600"/><path d="M806 546H1600"/><path d="M806 627H1600"/><path d="M806 708H1600"/><path d="M806 789H1600"/><path d="M806 870H1600"/></g><g><line x1="833" y1="524.2" x2="833" y2="613.9" stroke="#FF7861" stroke-width="2"/><rect x="825" y="540.0" width="16" height="51.3" rx="2" fill="#FF7861"/><line x1="856" y1="564.3" x2="856" y2="644.4" stroke="#FF7861" stroke-width="2"/><rect x="848" y="591.3" width="16" height="42.3" rx="2" fill="#FF7861"/><line x1="879" y1="616.9" x2="879" y2="661.4" stroke="#FF7861" stroke-width="2"/><rect x="871" y="633.6" width="16" height="17.3" rx="2" fill="#FF7861"/><line x1="902" y1="583.5" x2="902" y2="664.5" stroke="#31D9B3" stroke-width="2"/><rect x="894" y="614.6" width="16" height="36.3" rx="2" fill="#31D9B3"/><line x1="925" y1="590.1" x2="925" y2="645.0" stroke="#FF7861" stroke-width="2"/><rect x="917" y="614.6" width="16" height="19.6" rx="2" fill="#FF7861"/><line x1="948" y1="614.9" x2="948" y2="652.7" stroke="#31D9B3" stroke-width="2"/><rect x="940" y="629.7" width="16" height="5.0" rx="2" fill="#31D9B3"/><line x1="971" y1="612.2" x2="971" y2="654.0" stroke="#FF7861" stroke-width="2"/><rect x="963" y="629.7" width="16" height="5.0" rx="2" fill="#FF7861"/><line x1="994" y1="614.4" x2="994" y2="684.8" stroke="#FF7861" stroke-width="2"/><rect x="986" y="629.9" width="16" height="39.6" rx="2" fill="#FF7861"/><line x1="1017" y1="615.7" x2="1017" y2="688.3" stroke="#31D9B3" stroke-width="2"/><rect x="1009" y="634.9" width="16" height="34.5" rx="2" fill="#31D9B3"/><line x1="1040" y1="596.8" x2="1040" y2="662.0" stroke="#31D9B3" stroke-width="2"/><rect x="1032" y="620.6" width="16" height="14.3" rx="2" fill="#31D9B3"/><line x1="1063" y1="510.0" x2="1063" y2="637.1" stroke="#31D9B3" stroke-width="2"/><rect x="1055" y="542.3" width="16" height="78.3" rx="2" fill="#31D9B3"/><line x1="1086" y1="447.1" x2="1086" y2="562.6" stroke="#31D9B3" stroke-width="2"/><rect x="1078" y="472.6" width="16" height="69.7" rx="2" fill="#31D9B3"/><line x1="1109" y1="454.7" x2="1109" y2="507.3" stroke="#FF7861" stroke-width="2"/><rect x="1101" y="472.6" width="16" height="5.0" rx="2" fill="#FF7861"/><line x1="1132" y1="442.9" x2="1132" y2="581.0" stroke="#FF7861" stroke-width="2"/><rect x="1124" y="476.6" width="16" height="77.0" rx="2" fill="#FF7861"/><line x1="1155" y1="525.5" x2="1155" y2="579.8" stroke="#31D9B3" stroke-width="2"/><rect x="1147" y="544.7" width="16" height="8.9" rx="2" fill="#31D9B3"/><line x1="1178" y1="480.1" x2="1178" y2="567.1" stroke="#31D9B3" stroke-width="2"/><rect x="1170" y="502.2" width="16" height="42.5" rx="2" fill="#31D9B3"/><line x1="1201" y1="464.9" x2="1201" y2="520.7" stroke="#31D9B3" stroke-width="2"/><rect x="1193" y="491.7" width="16" height="10.5" rx="2" fill="#31D9B3"/><line x1="1224" y1="460.6" x2="1224" y2="588.2" stroke="#FF7861" stroke-width="2"/><rect x="1216" y="491.7" width="16" height="67.7" rx="2" fill="#FF7861"/><line x1="1247" y1="526.9" x2="1247" y2="622.4" stroke="#FF7861" stroke-width="2"/><rect x="1239" y="559.4" width="16" height="35.1" rx="2" fill="#FF7861"/><line x1="1270" y1="569.9" x2="1270" y2="661.9" stroke="#FF7861" stroke-width="2"/><rect x="1262" y="594.5" width="16" height="46.7" rx="2" fill="#FF7861"/><line x1="1293" y1="541.9" x2="1293" y2="652.7" stroke="#31D9B3" stroke-width="2"/><rect x="1285" y="564.7" width="16" height="76.6" rx="2" fill="#31D9B3"/><line x1="1316" y1="548.4" x2="1316" y2="631.7" stroke="#FF7861" stroke-width="2"/><rect x="1308" y="564.7" width="16" height="51.3" rx="2" fill="#FF7861"/><line x1="1339" y1="553.3" x2="1339" y2="636.5" stroke="#31D9B3" stroke-width="2"/><rect x="1331" y="587.6" width="16" height="28.4" rx="2" fill="#31D9B3"/><line x1="1362" y1="561.3" x2="1362" y2="652.0" stroke="#FF7861" stroke-width="2"/><rect x="1354" y="587.6" width="16" height="46.4" rx="2" fill="#FF7861"/><line x1="1385" y1="607.9" x2="1385" y2="657.2" stroke="#FF7861" stroke-width="2"/><rect x="1377" y="634.0" width="16" height="5.0" rx="2" fill="#FF7861"/><line x1="1408" y1="609.0" x2="1408" y2="652.5" stroke="#FF7861" stroke-width="2"/><rect x="1400" y="636.7" width="16" height="5.0" rx="2" fill="#FF7861"/><line x1="1431" y1="606.4" x2="1431" y2="694.5" stroke="#FF7861" stroke-width="2"/><rect x="1423" y="637.6" width="16" height="28.3" rx="2" fill="#FF7861"/><line x1="1454" y1="631.6" x2="1454" y2="714.3" stroke="#FF7861" stroke-width="2"/><rect x="1446" y="665.9" width="16" height="21.9" rx="2" fill="#FF7861"/><line x1="1477" y1="584.5" x2="1477" y2="706.6" stroke="#31D9B3" stroke-width="2"/><rect x="1469" y="611.2" width="16" height="76.6" rx="2" fill="#31D9B3"/><line x1="1500" y1="533.8" x2="1500" y2="633.8" stroke="#31D9B3" stroke-width="2"/><rect x="1492" y="563.1" width="16" height="48.1" rx="2" fill="#31D9B3"/><line x1="1523" y1="548.7" x2="1523" y2="593.7" stroke="#FF7861" stroke-width="2"/><rect x="1515" y="563.1" width="16" height="20.1" rx="2" fill="#FF7861"/></g><line x1="1060" y1="285" x2="1060" y2="645" stroke="#F4B25C" stroke-width="7"/><rect x="1029" y="402" width="63" height="145" rx="5" fill="#F39522"/><line x1="1195" y1="240" x2="1195" y2="633" stroke="#54DDC0" stroke-width="6"/><rect x="1166" y="311" width="57" height="224" rx="5" fill="#4EE0B8"/><text x="1330" y="242" text-anchor="middle" font-size="26" fill="#FDC783">CANDLE CLOSE</text><rect width="987" height="900" fill="url(#fade)"/><text x="75" y="91" font-family="Arial,Helvetica,sans-serif" font-size="25" letter-spacing="5" fill="#E9BE80" font-weight="700">FOREX EDUCATION</text><path d="M75 119H283" stroke="#F39522" stroke-width="5"/><text x="65" y="396" fill="#FFFFFF" font-family="Arial Black,Arial,Helvetica,sans-serif" font-size="109" font-weight="900">ENGULFING</text><text x="65" y="527" fill="url(#orange)" font-family="Arial Black,Arial,Helvetica,sans-serif" font-size="109" font-weight="900">CANDLE</text><rect x="72" y="568" width="560" height="76" rx="17" fill="#060C11" stroke="#F5AE4C" stroke-width="2"/><text x="98" y="618" fill="#E3E9ED" font-family="Arial,Helvetica,sans-serif" font-size="24" font-weight="700">Bullish • Bearish • M5 Close</text><path d="M0 883H1600" stroke="#F39522" stroke-width="8" stroke-opacity=".4"/></svg>