<svg xmlns="http://www.w3.org/2000/svg" width="1600" height="900" viewBox="0 0 1600 900" role="img" aria-label="FAIR VALUE GAP (FVG) forex trading article"><defs><linearGradient id="bg" x1="0" y1="0" x2="1" y2="1"><stop stop-color="#03090C"/><stop offset=".55" stop-color="#0C131A"/><stop offset="1" stop-color="#080B0E"/></linearGradient><radialGradient id="glow"><stop stop-color="#F39522" stop-opacity=".30"/><stop offset="1" stop-color="#F39522" stop-opacity="0"/></radialGradient><linearGradient id="darkshade"><stop stop-color="#03080B"/><stop offset=".8" stop-color="#03080B" stop-opacity=".62"/><stop offset="1" stop-color="#03080B" stop-opacity="0"/></linearGradient><linearGradient id="orange" x1="0" y1="0" x2="0" y2="1"><stop stop-color="#FFE4B1"/><stop offset=".45" stop-color="#FAB453"/><stop offset="1" stop-color="#E67B12"/></linearGradient></defs><rect width="1600" height="900" fill="url(#bg)"/><ellipse cx="1250" cy="327" rx="545" ry="505" fill="url(#glow)"/><g stroke="#586570" stroke-opacity=".22"><path d="M817 0V900"/><path d="M881 0V900"/><path d="M945 0V900"/><path d="M1009 0V900"/><path d="M1073 0V900"/><path d="M1137 0V900"/><path d="M1201 0V900"/><path d="M1265 0V900"/><path d="M1329 0V900"/><path d="M1393 0V900"/><path d="M1457 0V900"/><path d="M1521 0V900"/><path d="M1585 0V900"/><path d="M782 48H1600"/><path d="M782 127H1600"/><path d="M782 206H1600"/><path d="M782 285H1600"/><path d="M782 364H1600"/><path d="M782 443H1600"/><path d="M782 522H1600"/><path d="M782 601H1600"/><path d="M782 680H1600"/><path d="M782 759H1600"/><path d="M782 838H1600"/></g><g><line x1="837" y1="463" x2="837" y2="514" stroke="#F27656" stroke-width="2"/><rect x="829" y="490" width="17" height="6" rx="1" fill="#F27656"/><line x1="860" y1="484" x2="860" y2="527" stroke="#F27656" stroke-width="2"/><rect x="852" y="496" width="17" height="6" rx="1" fill="#F27656"/><line x1="884" y1="487" x2="884" y2="568" stroke="#F27656" stroke-width="2"/><rect x="876" y="501" width="17" height="57" rx="1" fill="#F27656"/><line x1="907" y1="537" x2="907" y2="622" stroke="#F27656" stroke-width="2"/><rect x="899" y="558" width="17" height="46" rx="1" fill="#F27656"/><line x1="930" y1="553" x2="930" y2="626" stroke="#41D7B4" stroke-width="2"/><rect x="922" y="583" width="17" height="20" rx="1" fill="#41D7B4"/><line x1="954" y1="541" x2="954" y2="606" stroke="#41D7B4" stroke-width="2"/><rect x="946" y="561" width="17" height="23" rx="1" fill="#41D7B4"/><line x1="977" y1="530" x2="977" y2="582" stroke="#41D7B4" stroke-width="2"/><rect x="969" y="560" width="17" height="4" rx="1" fill="#41D7B4"/><line x1="1000" y1="547" x2="1000" y2="611" stroke="#F27656" stroke-width="2"/><rect x="992" y="560" width="17" height="36" rx="1" fill="#F27656"/><line x1="1023" y1="580" x2="1023" y2="649" stroke="#F27656" stroke-width="2"/><rect x="1015" y="596" width="17" height="36" rx="1" fill="#F27656"/><line x1="1047" y1="583" x2="1047" y2="663" stroke="#41D7B4" stroke-width="2"/><rect x="1039" y="609" width="17" height="23" rx="1" fill="#41D7B4"/><line x1="1070" y1="594" x2="1070" y2="689" stroke="#F27656" stroke-width="2"/><rect x="1062" y="609" width="17" height="55" rx="1" fill="#F27656"/><line x1="1093" y1="634" x2="1093" y2="722" stroke="#F27656" stroke-width="2"/><rect x="1085" y="663" width="17" height="47" rx="1" fill="#F27656"/><line x1="1117" y1="675" x2="1117" y2="724" stroke="#41D7B4" stroke-width="2"/><rect x="1109" y="689" width="17" height="22" rx="1" fill="#41D7B4"/><line x1="1140" y1="632" x2="1140" y2="709" stroke="#41D7B4" stroke-width="2"/><rect x="1132" y="659" width="17" height="30" rx="1" fill="#41D7B4"/><line x1="1163" y1="628" x2="1163" y2="710" stroke="#F27656" stroke-width="2"/><rect x="1155" y="659" width="17" height="22" rx="1" fill="#F27656"/><line x1="1187" y1="618" x2="1187" y2="699" stroke="#41D7B4" stroke-width="2"/><rect x="1179" y="643" width="17" height="37" rx="1" fill="#41D7B4"/><line x1="1210" y1="601" x2="1210" y2="672" stroke="#41D7B4" stroke-width="2"/><rect x="1202" y="612" width="17" height="31" rx="1" fill="#41D7B4"/><line x1="1233" y1="593" x2="1233" y2="638" stroke="#F27656" stroke-width="2"/><rect x="1225" y="612" width="17" height="12" rx="1" fill="#F27656"/><line x1="1256" y1="605" x2="1256" y2="679" stroke="#F27656" stroke-width="2"/><rect x="1248" y="625" width="17" height="39" rx="1" fill="#F27656"/><line x1="1280" y1="650" x2="1280" y2="757" stroke="#F27656" stroke-width="2"/><rect x="1272" y="663" width="17" height="69" rx="1" fill="#F27656"/><line x1="1303" y1="676" x2="1303" y2="746" stroke="#41D7B4" stroke-width="2"/><rect x="1295" y="701" width="17" height="32" rx="1" fill="#41D7B4"/><line x1="1326" y1="643" x2="1326" y2="729" stroke="#41D7B4" stroke-width="2"/><rect x="1318" y="659" width="17" height="42" rx="1" fill="#41D7B4"/><line x1="1350" y1="586" x2="1350" y2="672" stroke="#41D7B4" stroke-width="2"/><rect x="1342" y="600" width="17" height="58" rx="1" fill="#41D7B4"/><line x1="1373" y1="531" x2="1373" y2="625" stroke="#41D7B4" stroke-width="2"/><rect x="1365" y="560" width="17" height="40" rx="1" fill="#41D7B4"/><line x1="1396" y1="498" x2="1396" y2="589" stroke="#41D7B4" stroke-width="2"/><rect x="1388" y="524" width="17" height="36" rx="1" fill="#41D7B4"/><line x1="1420" y1="496" x2="1420" y2="585" stroke="#F27656" stroke-width="2"/><rect x="1412" y="524" width="17" height="38" rx="1" fill="#F27656"/><line x1="1443" y1="539" x2="1443" y2="626" stroke="#F27656" stroke-width="2"/><rect x="1435" y="562" width="17" height="53" rx="1" fill="#F27656"/><line x1="1466" y1="582" x2="1466" y2="676" stroke="#F27656" stroke-width="2"/><rect x="1458" y="614" width="17" height="43" rx="1" fill="#F27656"/><line x1="1489" y1="632" x2="1489" y2="676" stroke="#41D7B4" stroke-width="2"/><rect x="1481" y="657" width="17" height="4" rx="1" fill="#41D7B4"/><line x1="1513" y1="627" x2="1513" y2="677" stroke="#F27656" stroke-width="2"/><rect x="1505" y="657" width="17" height="8" rx="1" fill="#F27656"/><line x1="1536" y1="641" x2="1536" y2="692" stroke="#F27656" stroke-width="2"/><rect x="1528" y="665" width="17" height="4" rx="1" fill="#F27656"/><line x1="1559" y1="589" x2="1559" y2="684" stroke="#41D7B4" stroke-width="2"/><rect x="1551" y="619" width="17" height="50" rx="1" fill="#41D7B4"/></g><rect x="890" y="316" width="566" height="113" rx="10" fill="#F39522" fill-opacity=".13" stroke="#FFC169" stroke-width="2"/><path d="M965 497L1110 395L1220 395L1327 265" fill="none" stroke="#F7B25B" stroke-width="8" stroke-dasharray="15 11"/><text x="1430" y="291" text-anchor="end" fill="#FFD289" font-size="27" letter-spacing="2">IMBALANCE</text><text x="1429" y="455" text-anchor="end" fill="#FBC177" font-size="26">BULLISH FVG</text><rect width="990" height="900" fill="url(#darkshade)"/><text x="76" y="95" fill="#EAC085" font-family="Arial,Helvetica,sans-serif" font-size="26" letter-spacing="6" font-weight="700">FOREX EDUCATION</text><path d="M75 119H300" stroke="#F39522" stroke-width="5"/><text x="65" y="398" fill="#FFFFFF" font-family="Arial Black,Arial,Helvetica,sans-serif" font-size="107" font-weight="900">FAIR VALUE</text><text x="65" y="527" fill="url(#orange)" font-family="Arial Black,Arial,Helvetica,sans-serif" font-size="108" font-weight="900">GAP (FVG)</text><rect x="70" y="567" width="609" height="78" rx="18" fill="#060C11" stroke="#F0A745" stroke-width="2"/><text x="96" y="619" fill="#E4E9EC" font-size="25" font-weight="700" font-family="Arial,Helvetica,sans-serif">Bullish • Bearish • Imbalance</text><path d="M0 883H1600" stroke="#F39522" stroke-opacity=".4" stroke-width="8"/></svg>