<svg xmlns="http://www.w3.org/2000/svg" width="1600" height="900" viewBox="0 0 1600 900"><defs><linearGradient id="bg" x2="1" y2="1"><stop stop-color="#04090E"/><stop offset=".65" stop-color="#13212A"/><stop offset="1" stop-color="#302013"/></linearGradient><linearGradient id="veil" x2="1"><stop stop-color="#04090E"/><stop offset=".75" stop-color="#04090E" stop-opacity=".95"/><stop offset="1" stop-color="#04090E" stop-opacity=".1"/></linearGradient></defs><rect width="1600" height="900" fill="url(#bg)"/><g stroke="#64727C" stroke-opacity=".15"><path d="M825 0V900" /><path d="M890 0V900" /><path d="M955 0V900" /><path d="M1020 0V900" /><path d="M1085 0V900" /><path d="M1150 0V900" /><path d="M1215 0V900" /><path d="M1280 0V900" /><path d="M1345 0V900" /><path d="M1410 0V900" /><path d="M1475 0V900" /><path d="M1540 0V900" /></g><g fill="#48D5AC"><rect x="990" y="340" width="15" height="24" /><rect x="1022" y="355.03677462019743" width="15" height="33" /><rect x="1054" y="350.732435670642" width="15" height="42" /><rect x="1086" y="325.5280002014967" width="15" height="51" /><rect x="1118" y="297.07993761730177" width="15" height="24" /><rect x="1150" y="286.02689313342154" width="15" height="33" /><rect x="1182" y="297.01461254502686" width="15" height="42" /><rect x="1214" y="314.4246649679697" width="15" height="51" /><rect x="1246" y="316.7339561655846" width="15" height="24" /><rect x="1278" y="296.3029621310439" width="15" height="33" /><rect x="1310" y="266.3994722277657" width="15" height="42" /><rect x="1342" y="249.0002448362324" width="15" height="51" /><rect x="1374" y="254.58567704998913" width="15" height="24" /><rect x="1406" y="272.504175920666" width="15" height="33" /></g><g transform="translate(965 492)"><rect width="550" height="289" rx="15" fill="#13202A" stroke="#ECA050"/><path d="M20 101C95 54 130 115 208 77S359 79 435 33L526 30" stroke="#F39522" stroke-width="8" fill="none"/><path d="M20 149C95 102 130 163 208 125S359 127 435 81L526 78" stroke="#F7ECDB" stroke-width="5" fill="none"/><path d="M20 197C95 150 130 211 208 173S359 175 435 129L526 126" stroke="#51DDB8" stroke-width="8" fill="none"/><path d="M20 242H525" stroke="#63727E" stroke-width="3" stroke-dasharray="8 12"/></g><rect width="900" height="900" fill="url(#veil)"/><text x="135" y="120" fill="#F4BD72" font-size="26" font-family="Arial">FOREX EDUCATION</text><path d="M135 141H350" stroke="#F39522" stroke-width="5"/><text x="129" y="374" fill="#FFFFFF" font-size="112" font-weight="900" font-family="Arial">KELTNER</text><text x="129" y="502" fill="#F39522" font-size="115" font-weight="900" font-family="Arial">CHANNELS</text><rect x="131" y="567" width="677" height="78" rx="12" fill="#101D26" stroke="#F39522"/><text x="151" y="617" fill="#F6E6D6" font-size="30" font-family="Arial">EMA • ATR • Breakouts</text><path d="M0 886H1600" stroke="#F39522" stroke-width="7"/></svg>