<svg xmlns="http://www.w3.org/2000/svg" width="1600" height="900" viewBox="0 0 1600 900"><defs><linearGradient id="bg" x2="1" y2="1"><stop stop-color="#04090E"/><stop offset=".65" stop-color="#13212A"/><stop offset="1" stop-color="#302013"/></linearGradient><linearGradient id="veil" x2="1"><stop stop-color="#04090E"/><stop offset=".75" stop-color="#04090E" stop-opacity=".95"/><stop offset="1" stop-color="#04090E" stop-opacity=".1"/></linearGradient></defs><rect width="1600" height="900" fill="url(#bg)"/><g stroke="#64727C" stroke-opacity=".15"><path d="M825 0V900" /><path d="M890 0V900" /><path d="M955 0V900" /><path d="M1020 0V900" /><path d="M1085 0V900" /><path d="M1150 0V900" /><path d="M1215 0V900" /><path d="M1280 0V900" /><path d="M1345 0V900" /><path d="M1410 0V900" /><path d="M1475 0V900" /><path d="M1540 0V900" /></g><g fill="#48D5AC"><rect x="990" y="340" width="15" height="24" /><rect x="1022" y="355.03677462019743" width="15" height="33" /><rect x="1054" y="350.732435670642" width="15" height="42" /><rect x="1086" y="325.5280002014967" width="15" height="51" /><rect x="1118" y="297.07993761730177" width="15" height="24" /><rect x="1150" y="286.02689313342154" width="15" height="33" /><rect x="1182" y="297.01461254502686" width="15" height="42" /><rect x="1214" y="314.4246649679697" width="15" height="51" /><rect x="1246" y="316.7339561655846" width="15" height="24" /><rect x="1278" y="296.3029621310439" width="15" height="33" /><rect x="1310" y="266.3994722277657" width="15" height="42" /><rect x="1342" y="249.0002448362324" width="15" height="51" /><rect x="1374" y="254.58567704998913" width="15" height="24" /><rect x="1406" y="272.504175920666" width="15" height="33" /></g><g transform="translate(970 495)"><rect width="550" height="287" rx="15" fill="#13202A" stroke="#ECA050"/><g fill="#F39522"><rect x="35" y="183" width="45" height="75"/><rect x="94" y="139" width="45" height="119"/><rect x="153" y="155" width="45" height="103"/><rect x="212" y="98" width="45" height="160"/><rect x="271" y="120" width="45" height="138"/><rect x="330" y="67" width="45" height="191"/><rect x="389" y="42" width="45" height="216"/><rect x="448" y="25" width="45" height="233"/></g><path d="M35 178L116 140L186 150L255 100L335 105L419 51L493 25" stroke="#53DFC1" stroke-width="7" fill="none"/></g><rect width="900" height="900" fill="url(#veil)"/><text x="135" y="120" fill="#F4BD72" font-size="26" font-family="Arial">FOREX EDUCATION</text><path d="M135 141H350" stroke="#F39522" stroke-width="5"/><text x="129" y="374" fill="#FFFFFF" font-size="78" font-weight="900" font-family="Arial">SMALL BUSINESS</text><text x="129" y="502" fill="#F39522" font-size="115" font-weight="900" font-family="Arial">OPTIMISM</text><rect x="131" y="567" width="677" height="78" rx="12" fill="#101D26" stroke="#F39522"/><text x="151" y="617" fill="#F6E6D6" font-size="30" font-family="Arial">NFIB • Hiring • Inflation</text><path d="M0 886H1600" stroke="#F39522" stroke-width="7"/></svg>